<?xml version="1.0" encoding="UTF-8"?>
<svg width="76px" height="76px" viewBox="0 0 76 76" version="1.1" xmlns="http://www.w3.org/2000/svg" xmlns:xlink="http://www.w3.org/1999/xlink">
    <!-- Generator: Sketch 52.6 (67491) - http://www.bohemiancoding.com/sketch -->
    <title>Group</title>
    <desc>Created with Sketch.</desc>
    <g id="Page-1" stroke="none" stroke-width="1" fill="none" fill-rule="evenodd">
        <g id="Group">
            <rect id="Rectangle-Copy-5" fill="#19B7EA" x="0" y="0" width="76" height="76"></rect>
            <g id="twitter" transform="translate(18.000000, 21.000000)" fill="#FFFFFF">
                <path d="M35.8884214,8.21663675 C35.9138122,8.57722559 35.9138122,8.93789372 35.9138122,9.29848256 C35.9138122,20.2969179 27.6651081,32.969697 12.5888773,32.969697 C7.94417166,32.969697 3.6294673,31.6044861 0,29.2348909 C0.659924453,29.3121146 1.29438006,29.3378823 1.97969523,29.3378823 C5.81213208,29.3378823 9.34011461,28.024286 12.1573912,25.7833707 C8.55331466,25.7060677 5.53299036,23.3106256 4.4923613,20.0136321 C5.00001953,20.0908558 5.50759964,20.1423912 6.0406486,20.1423912 C6.7766671,20.1423912 7.51276372,20.0393205 8.19800077,19.8591053 C4.44165798,19.086313 1.62430322,15.7378635 1.62430322,11.6939247 L1.62430322,11.5909332 C2.71563561,12.2091195 3.98478119,12.595476 5.32986457,12.6469321 C3.12173094,11.1529621 1.67508467,8.60299326 1.67508467,5.71812396 C1.67508467,4.17269791 2.08110188,2.75603094 2.79180778,1.51965838 C6.82737042,6.56814001 12.8934097,9.86505421 19.6953894,10.2257223 C19.5685139,9.60753605 19.4923418,8.96366139 19.4923418,8.31970744 C19.4923418,3.73480605 23.1471998,0 27.6903425,0 C30.0507424,0 32.1827038,1.00454279 33.6802097,2.62727186 C35.5329513,2.26668302 37.3095989,1.57119372 38.8832769,0.618186278 C38.2740558,2.55004813 36.9796757,4.1727772 35.2792003,5.20300838 C36.9289724,5.02279324 38.527963,4.55905443 40,3.91517976 C38.8834331,5.56359722 37.4874121,7.03172025 35.8884214,8.21663675 Z" id="Path"></path>
            </g>
        </g>
    </g>
</svg>