<svg id="Calque_1" data-name="Calque 1" xmlns="http://www.w3.org/2000/svg" viewBox="30 23 45 55"><defs><style>.cls-1,.cls-2,.cls-3,.cls-4,.cls-5,.cls-6{fill:#0082b9;}.cls-2{opacity:0.8;}.cls-3{opacity:0.6;}.cls-4{opacity:0.4;}.cls-5{opacity:0.2;}.cls-6{opacity:0.15;}</style></defs><path class="cls-1" d="M62.05,26.43H58.49V25.7A1.75,1.75,0,0,0,56.74,24H48.32a1.84,1.84,0,0,0-1.75,1.81v.73H43a6.32,6.32,0,0,0-6.31,6.31V70A6.32,6.32,0,0,0,43,76.28h19.1A6.32,6.32,0,0,0,68.36,70V32.74A6.32,6.32,0,0,0,62.05,26.43ZM65.9,71a2.75,2.75,0,0,1-2.75,2.75H41.91A2.75,2.75,0,0,1,39.16,71V31.7A2.75,2.75,0,0,1,41.91,29H63.15A2.75,2.75,0,0,1,65.9,31.7Z"/><path class="cls-1" d="M43.34,36.55a2.15,2.15,0,0,1-2.16-2.14V33.16A2.15,2.15,0,0,1,43.34,31H61.71a2.15,2.15,0,0,1,2.16,2.14v1.25a2.15,2.15,0,0,1-2.16,2.14Z"/><path class="cls-2" d="M43.34,43.59a2.15,2.15,0,0,1-2.16-2.14V40.2a2.15,2.15,0,0,1,2.16-2.14H61.71a2.15,2.15,0,0,1,2.16,2.14v1.25a2.16,2.16,0,0,1-2.16,2.14Z"/><path class="cls-3" d="M43.34,50.63a2.16,2.16,0,0,1-2.16-2.15V47.24a2.15,2.15,0,0,1,2.16-2.14H61.71a2.15,2.15,0,0,1,2.16,2.14v1.24a2.16,2.16,0,0,1-2.16,2.15Z"/><path class="cls-4" d="M43.34,57.67a2.16,2.16,0,0,1-2.16-2.15V54.28a2.15,2.15,0,0,1,2.16-2.14H61.71a2.15,2.15,0,0,1,2.16,2.14v1.24a2.16,2.16,0,0,1-2.16,2.15Z"/><path class="cls-5" d="M43.34,64.7a2.15,2.15,0,0,1-2.16-2.14V61.32a2.15,2.15,0,0,1,2.16-2.14H61.71a2.15,2.15,0,0,1,2.16,2.14v1.24a2.15,2.15,0,0,1-2.16,2.14Z"/><path class="cls-6" d="M43.34,71.74a2.15,2.15,0,0,1-2.16-2.14V68.36a2.16,2.16,0,0,1,2.16-2.15H61.71a2.16,2.16,0,0,1,2.16,2.15V69.6a2.15,2.15,0,0,1-2.16,2.14Z"/></svg>